<?xml version="1.0" encoding="UTF-8"?>
<svg id="Layer_1" data-name="Layer 1" xmlns="http://www.w3.org/2000/svg" viewBox="0 0 155.84 169.46">
  <defs>
    <style>
      .cls-1 {
        fill: #56ca19;
      }

      .cls-1, .cls-2 {
        stroke-width: 0px;
      }

      .cls-2 {
        fill: #072849;
      }
    </style>
  </defs>
  <g>
    <path class="cls-2" d="M94.92,151.66c1.27-2.52,2.43-4.8,3.58-7.09.4-.8.95-1.31,1.9-1.39,2.73-.23,3.23.21,3.27,2.95.04,3.73.06,7.45.1,11.18,0,.61.05,1.24-.35,1.77-.56.75-1.31.99-2.21.77-1.01-.24-1.43-.97-1.45-1.93-.02-2.31,0-4.62-.24-6.99-.81,1.56-1.63,3.12-2.43,4.69-.45.89-.95,1.62-2.16,1.59-1.17-.03-1.69-.7-2.14-1.61-.79-1.59-1.65-3.14-2.64-5.03v4.33c0,1.01.02,2.02,0,3.02-.03,1.26-.74,1.96-1.95,1.99-1.26.04-1.99-.56-2.15-1.81-.04-.3-.02-.62-.02-.92,0-3.99.02-7.98.02-11.97,0-1.63.49-2.06,2.12-2.14,1.66-.09,2.8.43,3.5,2.08.93,2.14,2.09,4.18,3.26,6.49Z"/>
    <path class="cls-2" d="M66.31,151.24c0,2.18,0,4.36,0,6.53,0,1.43-.62,2.04-1.96,2.06-1.35.02-2.08-.62-2.08-1.97-.02-4.39,0-8.77-.02-13.17,0-.78.34-1.3,1.03-1.48,1.05-.28,2.14-.32,2.93.57.82.91,1.54,1.91,2.29,2.89,1.44,1.91,2.88,3.83,4.55,6.06v-7.41c0-1.67.47-2.24,1.84-2.26,1.51-.03,2.17.65,2.17,2.26,0,4.08,0,8.16.03,12.24,0,1.02-.23,1.91-1.25,2.21-1,.3-1.99.16-2.74-.75-2.16-2.64-4.35-5.26-6.53-7.9-.09.05-.17.09-.26.12Z"/>
    <path class="cls-2" d="M22.04,155.34c0,.94.02,1.86,0,2.77-.02,1.04-.58,1.62-1.61,1.72-1.09.1-2.03-.13-2.4-1.33-.11-.36-.11-.78-.11-1.17-.02-4.03-.02-8.06-.02-12.1,0-1.74.32-2.05,2.07-2.06,1.93,0,3.86-.04,5.78.03,3.74.14,6.56,3.73,5.75,7.38-.38,1.71-1.42,3.02-3.11,3.86.67.83,1.31,1.55,1.87,2.32.61.82,1.29,1.69.29,2.67-.67.67-2.5.54-3.24-.28-.79-.87-1.57-1.78-2.2-2.78-.7-1.15-1.61-1.48-3.05-1.03ZM22.05,151.61c1.12,0,2.12-.03,3.11,0,1.18.05,1.97-.47,2.27-1.57.32-1.15-.17-2.08-1.16-2.68-1.17-.7-2.46-.45-3.71-.32-.34.03-.51.28-.5.65,0,1.26,0,2.53,0,3.92Z"/>
    <path class="cls-2" d="M135.67,154.5c.67.78,1.29,1.45,1.86,2.16.99,1.23,1.1,2.28.36,2.89-.59.49-2.77.24-3.45-.36-.91-.81-1.66-1.75-2.23-2.8-.66-1.24-1.58-1.57-3.04-1.08v2.92c0,1.22-.78,1.56-1.81,1.61-1.26.06-2.16-.53-2.17-1.57-.05-4.6-.05-9.2-.04-13.8,0-.86.59-1.26,1.38-1.27,2.28-.02,4.57-.13,6.83.07,4.31.39,6.74,4.71,4.98,8.61-.49,1.09-1.11,1.73-2.67,2.62ZM129.42,147.07v4.54c1.01,0,1.92,0,2.83,0,1.58-.02,2.47-.73,2.56-2.01.09-1.26-.89-2.37-2.33-2.5-.98-.1-1.99-.02-3.06-.02Z"/>
    <path class="cls-2" d="M14.66,145.85c-.45.92-1.24,1.42-1.91,2.03-.49.45-.9,0-1.3-.21-1.28-.68-2.58-.92-4.05-.58-2.56.6-3.91,3.7-3.12,5.72.99,2.53,3.96,3.84,6.38,2.76.75-.34,1.22-.82.96-1.78-.38,0-.77.02-1.15,0-1.16-.06-1.61-.7-1.62-2.07,0-1.19.71-1.34,1.65-1.31,1.22.03,2.46.02,3.68,0,.87,0,1.28.36,1.26,1.27-.02,1.53-.03,3.07.02,4.6.02.66-.28,1.09-.74,1.44-1.24.94-2.47,1.78-4.11,2.04-3.96.66-8.67-1.47-9.97-4.93-2.42-6.49,2.42-11.73,7.6-11.88,2.63-.08,4.79.77,6.41,2.89Z"/>
    <path class="cls-2" d="M145.45,150.34c.9-.94,1.54-1.62,2.2-2.3,1.34-1.39,2.68-2.77,4.03-4.14.73-.74,1.63-1.02,2.64-.8,1.44.31,1.76,1.26.76,2.3-1.39,1.47-2.8,2.89-4.2,4.35-.24.25-.45.53-.75.88,1.1,1.32,2.19,2.63,3.27,3.93.58.71,1.18,1.42,1.73,2.15.66.88,1.18,1.77.06,2.71-1.06.89-2.32.88-3.29-.19-1.02-1.12-2-2.29-2.86-3.55-.49-.71-1.11-1.34-1.69-2.02-1.49.95-2.07,2.18-1.91,3.89.13,1.44-.74,2.28-2.06,2.29-1.26.02-1.89-.54-1.9-1.8-.03-4.34-.04-8.68-.02-13.02,0-1.42.71-2.08,2-2.03,1.31.04,1.98.71,1.99,2.06.02,1.65,0,3.29,0,5.29Z"/>
    <path class="cls-2" d="M120.69,159.83c-1.3.16-1.85-.84-2.29-1.86-.41-.95-.96-1.34-2-1.22-.87.1-1.76.07-2.63,0-1.67-.16-3.03-.02-3.62,1.96-.3,1.01-1.35,1.3-2.41,1.17-1.26-.15-1.94-1.05-1.48-2.21,1.82-4.55,3.7-9.07,6.01-13.4.94-1.76,3.79-1.67,4.73.15,1.07,2.11,1.96,4.3,2.91,6.46.93,2.12,1.91,4.22,2.76,6.36.67,1.68-.06,2.62-1.99,2.59ZM112.52,153.18h3.96c-.62-1.48-1.22-2.88-1.9-4.47-.74,1.6-1.39,3-2.07,4.47Z"/>
    <path class="cls-2" d="M38.17,153.57v2.36c1.91,0,3.79-.02,5.66,0,1.41.02,2.14.72,2.16,1.94.02,1.06-.67,1.87-1.74,1.89-2.8.04-5.61.04-8.41,0-1.23-.02-1.82-.63-1.86-2.05-.08-2.32-.06-4.65-.07-6.96,0-1.84,0-3.68.03-5.52.03-1.6.5-2.04,2.03-2.05,2.63,0,5.26-.02,7.89,0,1.23,0,1.97.74,2.04,1.91.07,1.16-.52,1.82-1.68,1.84-.96.02-1.93,0-2.89,0h-2.99c-.1.98-.19,1.88-.29,2.97,1.65,0,3.21-.02,4.77,0,.88.02,1.67.25,1.98,1.21.42,1.29-.36,2.41-1.74,2.44-1.61.04-3.21,0-4.88,0Z"/>
    <path class="cls-2" d="M52.3,146.95v2.91c1.61,0,3.17-.03,4.73,0,1.5.04,2.16.88,1.91,2.31-.18,1.01-.79,1.38-1.77,1.37-1.61-.02-3.23,0-4.83,0-.19.81-.14,1.5-.06,2.37,1.83,0,3.66-.02,5.48,0,1.01,0,1.95.19,2.23,1.39.31,1.3-.49,2.42-1.82,2.44-2.76.04-5.52.03-8.28.03-1.18,0-1.84-.66-1.85-1.78-.04-4.47-.02-8.94,0-13.42,0-.97.66-1.41,1.56-1.42,2.89-.02,5.79-.02,8.68.03,1.14.02,1.7.81,1.66,2.08-.03,1.13-.58,1.68-1.73,1.67-1.92,0-3.84,0-5.93,0Z"/>
    <path class="cls-1" d="M89.71,9.76c.03,3.15-.76,5.24-2.68,6.79-3,2.42-7.13,1.52-8.94-1.91-1.84-3.48-1.15-7.76,1.82-10.46.78-.71,1.84-1.09,3.02-1.18.94-.06,1.8,0,2.76.5,2.87,1.48,3.94,3.91,4.03,6.24Z"/>
    <path class="cls-1" d="M116.09,11.32c.06,5.27-1.28,8.78-4.5,11.37-5.02,4.05-11.92,2.54-14.96-3.19-3.09-5.82-1.93-12.98,3.04-17.5,1.31-1.19,3.08-1.82,5.04-1.97,1.57-.11,3.01.02,4.63.85,4.82,2.46,6.61,6.53,6.75,10.43Z"/>
    <path class="cls-1" d="M73.34,15.01c.04,1.54-.38,2.94-1.27,4.18-1.78,2.49-5.33,2.89-7.64.89-1.98-1.71-2.87-5.12-1.98-7.57,1.01-2.79,3.43-4.3,6.1-3.81,2.92.54,4.82,3.03,4.78,6.31Z"/>
    <path class="cls-1" d="M49.9,23.13c0-3.18,2.25-5.63,5.17-5.63s5.28,2.69,5.31,5.9c.03,3.15-2.15,5.52-5.08,5.51-2.93,0-5.39-2.64-5.4-5.79Z"/>
    <path class="cls-1" d="M46.75,39c-2.75.02-5.02-2.32-5.01-5.16,0-2.73,1.84-4.7,4.39-4.72,2.7-.02,5.03,2.57,5.03,5.6,0,2.33-1.98,4.26-4.41,4.27Z"/>
    <path class="cls-1" d="M83.27,68.8c2.04-1.03,4.22-1.7,6.39-2.39,4.3-1.36,8.22-3.31,11.44-6.57,8.03-8.13,8.49-24.28-6.02-30.65-5.42-2.38-11.06-2.65-16.76-1.6-7.6,1.41-13.89,5.18-19.16,10.88-3.22,3.49-5.81,7.31-7.7,11.64-4.73,10.84-4.07,22.08-2.39,33.37.09.6.32,1.2.63,1.76-.33-.45-.43-.9-.43-.9.75,3.28,2.61,10.4,2.83,11.23,0,0,0,0-.01.01,2.16,8.47,4.44,16.93,8.17,24.87,3.72,7.94,9.61,13.1,18.87,13.42,8.84.31,15.52-4.24,18.24-12.14,3.08-8.92,1.17-16.94-5.65-23.63-2.72-2.67-5.84-4.86-8.7-7.35-2.46-2.15-4.32-4.72-5.42-7.8-2.1-5.91.09-11.35,5.66-14.17ZM81.03,33.2c4.51-.54,8.81.09,12.67,2.72,3.52,2.4,5.61,6.26,5.71,10.25-.1-3.98-2.19-7.84-5.71-10.24-3.86-2.63-8.16-3.26-12.67-2.72-.32.04-.64.09-.96.15.32-.06.64-.11.96-.15ZM82.01,42.12c.66.02,1.31.12,1.92.38.28.13.54.27.78.44-.23-.16-.5-.3-.78-.42-.61-.26-1.26-.36-1.92-.38-6.02-.18-10.84,2.39-14.97,6.51-7.36,7.32-9.81,16.58-10.53,25.77,0,0,0,0,0-.01.72-9.19,3.17-18.46,10.53-25.78,4.13-4.12,8.96-6.69,14.97-6.51ZM72.46,112.69c1.08.86,2.25,1.59,3.66,1.66-1.42-.07-2.59-.8-3.67-1.66-3.98-3.18-6.74-7.31-9.09-11.77-2.36-4.48-4.01-9.21-5.32-14.1-.36-1.34-.63-2.7-.85-4.09.22,1.39.49,2.75.86,4.09,1.31,4.89,2.96,9.61,5.32,14.1,2.34,4.46,5.11,8.59,9.09,11.77ZM53.37,81.17c-.57-3.34-.62-6.71-.56-10.08.11-6.44,1.71-12.52,4.66-18.22,2.21-4.29,5.33-7.93,9.31-10.66,3.41-2.34,7.12-3.99,11.26-4.13-4.13.14-7.84,1.8-11.24,4.13-3.98,2.73-7.09,6.37-9.31,10.66-2.95,5.7-4.55,11.78-4.66,18.22-.06,3.37,0,6.74.56,10.08.13.75.38,1.36.47,1.98-.18-.74-.39-1.45-.48-1.98ZM62.61,106.18c-1.96-3.18-3.41-6.61-5.04-9.95-.68-1.41-1.78-2.05-3.36-2.01,0,0,0,0,0,0,1.59-.04,2.69.6,3.37,2.01,1.63,3.35,3.08,6.78,5.04,9.95,2.54,4.11,5.2,8.12,9.41,10.79,1.62,1.03,3.34,1.74,5.25,1.9.23.02.47.03.69.03-.23,0-.47,0-.71-.03-1.91-.15-3.63-.87-5.25-1.9-4.21-2.67-6.87-6.68-9.41-10.79ZM78.42,126.77c-5-.06-9.84-3.54-11.6-8.28,0,0,.02.01.03.02,1.77,4.72,6.6,8.19,11.59,8.25,1.21.02,2.37-.09,3.47-.32-1.1.23-2.27.34-3.49.32ZM78.02,99.11c2.47,2.34,5.36,4.22,7.65,6.75,5,5.52,3.47,13.47-2.47,16.53,5.92-3.07,7.44-11,2.45-16.52-2.29-2.54-5.18-4.41-7.65-6.75-2.71-2.57-4.95-5.44-5.94-9.12-.44-1.61-.57-3.27-.46-5.33-.11,2.07.03,3.71.48,5.32.99,3.68,3.23,6.55,5.94,9.12ZM72.94,64.21c-2.23,2.89-3.18,6.13-3.28,9.69-.02.76-.03,1.52-.02,2.28,0-.76,0-1.52.02-2.29.11-3.56,1.05-6.8,3.28-9.69,2.12-2.74,4.69-4.78,7.94-5.95,2.63-.95,5.29-1.82,7.94-2.68,4.83-1.54,7.5-5.5,7.48-9.59.02,4.09-2.65,8.06-7.48,9.6-2.66.84-5.32,1.73-7.94,2.68-3.24,1.17-5.81,3.2-7.94,5.95Z"/>
  </g>
  <ellipse class="cls-1" cx="81.83" cy="168.2" rx="57.09" ry="1.26"/>
</svg>